<svg width="27" height="27" viewBox="0 0 27 27" fill="none" xmlns="http://www.w3.org/2000/svg">
<g clip-path="url(#clip0_255_1049)">
<path d="M17.692 11.0305V19.767H6.30821V11.0305H3.93896V22.192H10.4796C10.7713 22.7326 11.3428 23.0999 12.0002 23.0999C12.6575 23.0999 13.229 22.7326 13.5207 22.192H20.0613V11.0305H17.692Z" fill="#AAB6FB"/>
<path d="M6.30811 20.2358H17.6919C17.9507 20.2358 18.1606 20.0259 18.1606 19.7671V10.7902C18.1606 10.5313 17.9507 10.3214 17.6919 10.3214H6.30811C6.04921 10.3214 5.83936 10.5313 5.83936 10.7902V19.7671C5.83936 20.0259 6.04921 20.2358 6.30811 20.2358ZM17.2231 19.2983H12.4687V11.2589H17.2231V19.2983ZM6.77686 11.2589H11.5312V19.2983H6.77686V11.2589Z" fill="#1F2F98"/>
<path d="M22.5537 5.20415H20.8796V4.79053C20.8796 4.53168 20.6697 4.32178 20.4108 4.32178C20.152 4.32178 19.9421 4.53168 19.9421 4.79053V5.20415H16.6741V4.79053C16.6741 4.53168 16.4642 4.32178 16.2054 4.32178C15.9465 4.32178 15.7366 4.53168 15.7366 4.79053V5.20415H12.4688V4.79053C12.4688 4.53168 12.2588 4.32178 12 4.32178C11.7411 4.32178 11.5312 4.53168 11.5312 4.79053V5.20415H8.26331V4.79053C8.26331 4.53168 8.05345 4.32178 7.79456 4.32178C7.53567 4.32178 7.32581 4.53168 7.32581 4.79053V5.20415H4.05788V4.79053C4.05788 4.53168 3.84802 4.32178 3.58913 4.32178C3.33023 4.32178 3.12038 4.53168 3.12038 4.79053V5.20415H1.44628C0.648797 5.20415 0 5.85295 0 6.65043V24.2317C0 25.0292 0.648797 25.678 1.44628 25.678H22.5538C23.3512 25.678 24 25.0292 24 24.2317V6.65043C24 5.85295 23.3512 5.20415 22.5537 5.20415ZM0.9375 6.65043C0.9375 6.36993 1.16573 6.14165 1.44628 6.14165H3.12042V6.94476C3.12042 7.20361 3.33028 7.41351 3.58917 7.41351C3.84806 7.41351 4.05792 7.20361 4.05792 6.94476V6.14165H7.32586V6.94476C7.32586 7.20361 7.53572 7.41351 7.79461 7.41351C8.0535 7.41351 8.26336 7.20361 8.26336 6.94476V6.14165H11.5312V6.94476C11.5312 7.20361 11.7411 7.41351 12 7.41351C12.2588 7.41351 12.4688 7.20361 12.4688 6.94476V6.14165H15.7367V6.94476C15.7367 7.20361 15.9466 7.41351 16.2054 7.41351C16.4643 7.41351 16.6742 7.20361 16.6742 6.94476V6.14165H19.9421V6.94476C19.9421 7.20361 20.152 7.41351 20.4109 7.41351C20.6697 7.41351 20.8796 7.20361 20.8796 6.94476V6.14165H22.5538C22.8343 6.14165 23.0625 6.36989 23.0625 6.65043V8.12962H0.9375V6.65043ZM23.0625 24.2317C23.0625 24.5122 22.8343 24.7405 22.5537 24.7405H1.44628C1.16573 24.7405 0.9375 24.5123 0.9375 24.2317V9.06712H23.0625V24.2317Z" fill="#1F2F98"/>
</g>
<circle cx="23" cy="4" r="4" fill="#FDC827"/>
<defs>
<clipPath id="clip0_255_1049">
<rect width="24" height="24" fill="white" transform="translate(0 3)"/>
</clipPath>
</defs>
</svg>
