<svg width="24" height="24" viewBox="0 0 24 24" fill="none" xmlns="http://www.w3.org/2000/svg">
<path d="M6.24007 4.80005V7.20005M6.24007 7.20005C5.17968 7.20005 4.32007 8.05966 4.32007 9.12005C4.32007 10.1804 5.17968 11.04 6.24007 11.04M6.24007 7.20005C7.30046 7.20005 8.16007 8.05966 8.16007 9.12005C8.16007 10.1804 7.30046 11.04 6.24007 11.04M6.24007 11.04V19.2M12.0001 4.80005V12.96M12.0001 12.96C10.9397 12.96 10.0801 13.8197 10.0801 14.88C10.0801 15.9404 10.9397 16.8 12.0001 16.8M12.0001 12.96C13.0605 12.96 13.9201 13.8197 13.9201 14.88C13.9201 15.9404 13.0605 16.8 12.0001 16.8M12.0001 16.8V19.2M17.7601 4.80005V7.20005M17.7601 7.20005C16.6997 7.20005 15.8401 8.05966 15.8401 9.12005C15.8401 10.1804 16.6997 11.04 17.7601 11.04M17.7601 7.20005C18.8205 7.20005 19.6801 8.05966 19.6801 9.12005C19.6801 10.1804 18.8205 11.04 17.7601 11.04M17.7601 11.04V19.2" stroke="#1F2F98" stroke-width="1.2"/>
</svg>
