<svg width="59" height="59" viewBox="0 0 59 59" fill="none" xmlns="http://www.w3.org/2000/svg">
<path d="M47.0194 20.5073L41.3771 18.0903L35.7349 20.5073V4.12671H47.0194V20.5073Z" fill="#AAB6FB"/>
<path d="M57.1688 37.6391C55.3278 36.3453 52.8429 36.5699 51.2598 38.1732C51.2091 38.2246 51.1633 38.2808 51.123 38.3407L48.595 42.1071C47.8873 40.4366 46.2429 39.263 44.3324 39.263L26.1446 39.2508H26.1438C25.868 39.2508 25.6014 39.3497 25.3922 39.5296L20.8361 43.4495H17.5108V42.4367C17.5108 41.8003 16.9949 41.2843 16.3584 41.2843H11.2848V41.1267C11.2848 40.4903 10.7689 39.9744 10.1324 39.9744H1.15234C0.515904 39.9744 0 40.4903 0 41.1267V54.6412C0 55.2776 0.515904 55.7935 1.15234 55.7935H10.1324C10.7689 55.7935 11.2848 55.2776 11.2848 54.6412V54.4835H16.3584C16.9949 54.4835 17.5108 53.9676 17.5108 53.3312V52.2672H21.3318L24.7836 55.9263C25.0015 56.1572 25.3048 56.2879 25.6218 56.2879C25.6271 56.2879 25.6326 56.2877 25.6379 56.2877L49.4354 55.9539C49.8067 55.9487 50.1528 55.7649 50.3649 55.4603L57.9261 44.6024C57.9309 44.5956 57.9356 44.5887 57.9401 44.5819C58.6723 43.4807 59.0469 42.2179 58.9953 41.026C58.9347 39.627 58.286 38.4243 57.1688 37.6391ZM8.9801 53.4888H2.30469V42.279H8.9801V53.4888ZM15.2061 52.179H11.2848V43.5892H15.2061V52.179ZM56.0271 43.2965L48.8117 53.6578L26.1123 53.9761L22.6672 50.3241C22.4495 50.0933 22.1462 49.9625 21.829 49.9625H17.5108V45.7542H21.2635C21.5394 45.7542 21.806 45.6553 22.0151 45.4754L26.571 41.5557L44.3316 41.5677C45.6161 41.5677 46.6612 42.632 46.6612 43.9403C46.6612 45.2484 45.6162 46.3126 44.3316 46.3126C44.3286 46.3126 44.3256 46.3127 44.3226 46.3127H34.3848C34.0686 46.3127 33.7662 46.4427 33.5485 46.6722L31.1242 49.2293C30.6863 49.6912 30.7058 50.4205 31.1677 50.8584C31.3905 51.0697 31.6756 51.1745 31.9603 51.1745C32.2655 51.1745 32.5702 51.0539 32.7967 50.8149L34.8802 48.6174L46.386 48.618H46.3863C46.7703 48.618 47.1291 48.4267 47.3431 48.1078L52.9702 39.7244C53.7612 38.9873 54.9538 38.8993 55.8436 39.5248C57.0446 40.3688 56.8452 42.0588 56.0271 43.2965Z" fill="#1F2F98"/>
<path d="M55.2503 2.71216H27.5042C25.4366 2.71216 23.7544 4.39435 23.7544 6.462V30.1889C23.7544 32.2565 25.4366 33.9387 27.5042 33.9387H55.2503C57.3179 33.9387 59.0001 32.2565 59.0001 30.1889V6.462C59.0001 4.39435 57.3179 2.71216 55.2503 2.71216ZM56.6954 30.1889C56.6954 30.9857 56.0471 31.634 55.2503 31.634H27.5042C26.7074 31.634 26.0591 30.9857 26.0591 30.1889V6.462C26.0591 5.66515 26.7074 5.01685 27.5042 5.01685H55.2503C56.0471 5.01685 56.6954 5.66515 56.6954 6.462V30.1889Z" fill="#1F2F98"/>
<path d="M52.7231 25.1545H45.7617C45.1254 25.1545 44.6094 25.6704 44.6094 26.3069C44.6094 26.9433 45.1254 27.4592 45.7617 27.4592H52.7231C53.3595 27.4592 53.8755 26.9433 53.8755 26.3069C53.8755 25.6706 53.3596 25.1545 52.7231 25.1545Z" fill="#1F2F98"/>
</svg>
