<svg width="24" height="25" viewBox="0 0 24 25" fill="none" xmlns="http://www.w3.org/2000/svg">
<path d="M10 13.2613H10.5C10.5 13.1436 10.4584 13.0296 10.3827 12.9395L10 13.2613ZM4.41067 6.61545L4.79333 6.29363L4.41067 6.61545ZM19.646 6.61545L19.2633 6.29363L19.646 6.61545ZM14 13.3287L13.6173 13.0069C13.5416 13.097 13.5 13.211 13.5 13.3287H14ZM14 18L14.3 18.4C14.4259 18.3055 14.5 18.1574 14.5 18H14ZM10 21H9.5C9.5 21.1894 9.607 21.3625 9.77639 21.4472C9.94579 21.5319 10.1485 21.5136 10.3 21.4L10 21ZM10.3827 12.9395L4.79333 6.29363L4.02801 6.93728L9.61734 13.5832L10.3827 12.9395ZM4.79333 6.29363C4.51979 5.96838 4.75101 5.4718 5.17599 5.4718V4.4718C3.90106 4.4718 3.2074 5.96154 4.02801 6.93728L4.79333 6.29363ZM5.17599 5.4718H18.8807V4.4718H5.17599V5.4718ZM18.8807 5.4718C19.3056 5.4718 19.5369 5.96838 19.2633 6.29363L20.0286 6.93728C20.8493 5.96155 20.1556 4.4718 18.8807 4.4718V5.4718ZM19.2633 6.29363L13.6173 13.0069L14.3827 13.6505L20.0286 6.93728L19.2633 6.29363ZM13.5 13.3287V18H14.5V13.3287H13.5ZM13.7 17.6L9.7 20.6L10.3 21.4L14.3 18.4L13.7 17.6ZM10.5 21V13.2613H9.5V21H10.5Z" fill="#1F2F98"/>
<circle cx="20" cy="4" r="4" fill="#FDC827"/>
</svg>
