<svg width="40" height="40" viewBox="0 0 40 40" fill="none" xmlns="http://www.w3.org/2000/svg">
<g clip-path="url(#clip0_255_5364)">
<path d="M37.6564 3.63348H32.6307C32.1993 3.63348 31.8495 3.98325 31.8495 4.41473V34.8323C31.8495 34.9675 31.8846 35.1004 31.9514 35.218L32.5976 36.3565C32.5981 36.3574 32.5986 36.3582 32.5991 36.3591C32.5993 36.3594 32.5995 36.3598 32.5996 36.3601L34.4662 39.6082C34.6055 39.8507 34.8639 40.0002 35.1435 40.0002C35.4232 40.0002 35.6816 39.8507 35.8209 39.6082L37.6875 36.3601C37.6876 36.3598 37.6878 36.3594 37.688 36.3591C37.6885 36.3582 37.689 36.3574 37.6895 36.3565L38.3357 35.218C38.4025 35.1004 38.4376 34.9675 38.4376 34.8323V4.41473C38.4376 3.98325 38.0878 3.63348 37.6564 3.63348ZM36.8751 34.626L36.5552 35.1895H33.7318L33.4119 34.626V34.0975C33.467 34.1026 33.5234 34.1054 33.5811 34.1054C34.3464 34.1054 34.8011 33.8496 35.1435 33.51C35.4858 33.8496 35.9406 34.1054 36.7058 34.1054C36.7635 34.1054 36.82 34.1027 36.875 34.0975V34.626H36.8751ZM36.8751 32.4907C36.8218 32.5203 36.7624 32.5429 36.7059 32.5429C36.3219 32.5429 36.2839 32.4909 35.9192 31.9935C35.8713 31.9282 35.8213 31.86 35.768 31.7892C35.6204 31.5928 35.3891 31.4774 35.1435 31.4774C34.898 31.4774 34.6667 31.5928 34.5191 31.7892C34.4658 31.86 34.4159 31.9282 34.3679 31.9935C34.0032 32.491 33.9652 32.5429 33.5812 32.5429C33.5257 32.5429 33.4664 32.5211 33.412 32.4909V10.0697H36.8751V32.4907ZM33.412 5.19598H36.8751V8.50715H33.412V5.19598ZM35.1435 37.6509L34.6271 36.7521H35.6601L35.1435 37.6509Z" fill="#1F2F98"/>
<path d="M29.1183 0H2.34375C1.91234 0 1.5625 0.349766 1.5625 0.78125V39.2188C1.5625 39.6502 1.91234 40 2.34375 40H29.1183C29.5497 40 29.8995 39.6502 29.8995 39.2188V0.78125C29.8995 0.349766 29.5497 0 29.1183 0ZM28.337 38.4375H3.125V1.5625H28.337V38.4375Z" fill="#1F2F98"/>
<path d="M22.1616 10.5939C22.3117 10.7321 22.5013 10.8004 22.6905 10.8004C22.9012 10.8004 23.1115 10.7156 23.2655 10.5483L23.9013 9.85747L24.5372 10.5483C24.6912 10.7156 24.9014 10.8004 25.1122 10.8004C25.3013 10.8004 25.491 10.7321 25.6411 10.5939C25.9585 10.3016 25.979 9.8074 25.6868 9.48997L24.9632 8.70396L25.6868 7.91794C25.979 7.60052 25.9586 7.10622 25.6411 6.81404C25.3236 6.52177 24.8294 6.54224 24.5372 6.85966L23.9013 7.55044L23.2655 6.85966C22.9734 6.54232 22.4791 6.52177 22.1616 6.81404C21.8441 7.1063 21.8237 7.60052 22.1158 7.91794L22.8394 8.70396L22.1158 9.48997C21.8237 9.8074 21.8441 10.3016 22.1616 10.5939Z" fill="#1F2F98"/>
<path d="M6.05054 11.3035H19.2029C19.6343 11.3035 19.9841 10.9537 19.9841 10.5223V6.88562C19.9841 6.45414 19.6343 6.10437 19.2029 6.10437H6.05054C5.61913 6.10437 5.26929 6.45414 5.26929 6.88562V10.5223C5.26929 10.9537 5.61913 11.3035 6.05054 11.3035ZM6.83179 7.66687H18.4216V9.74101H6.83179V7.66687Z" fill="#1F2F98"/>
<path d="M22.1616 19.9477C22.3117 20.0859 22.5013 20.1542 22.6905 20.1542C22.9012 20.1542 23.1115 20.0694 23.2655 19.9021L23.9013 19.2113L24.5372 19.9021C24.6912 20.0694 24.9014 20.1542 25.1122 20.1542C25.3013 20.1542 25.491 20.0859 25.6411 19.9477C25.9585 19.6554 25.979 19.1612 25.6868 18.8438L24.9632 18.0578L25.6868 17.2718C25.979 16.9543 25.9586 16.46 25.6411 16.1679C25.3236 15.8756 24.8294 15.8961 24.5372 16.2135L23.9013 16.9043L23.2655 16.2135C22.9734 15.8961 22.4791 15.8756 22.1616 16.1679C21.8441 16.4601 21.8237 16.9543 22.1158 17.2718L22.8394 18.0578L22.1158 18.8438C21.8237 19.1612 21.8441 19.6554 22.1616 19.9477Z" fill="#1F2F98"/>
<path d="M6.05054 20.6573H19.2029C19.6343 20.6573 19.9841 20.3076 19.9841 19.8761V16.2394C19.9841 15.808 19.6343 15.4582 19.2029 15.4582H6.05054C5.61913 15.4582 5.26929 15.808 5.26929 16.2394V19.8761C5.26929 20.3076 5.61913 20.6573 6.05054 20.6573ZM6.83179 17.0207H18.4216V19.0948H6.83179V17.0207Z" fill="#1F2F98"/>
<path d="M5.88342 25.4212H25.5892V33.6858H5.88342V25.4212Z" fill="#AAB6FB"/>
</g>
<defs>
<clipPath id="clip0_255_5364">
<rect width="40" height="40" fill="white"/>
</clipPath>
</defs>
</svg>
