<svg width="89" height="89" viewBox="0 0 89 89" fill="none" xmlns="http://www.w3.org/2000/svg">
<path d="M87.9999 44.5C87.9999 36.5644 85.8291 28.7799 81.7225 21.9895C77.616 15.199 71.7301 9.66126 64.7022 5.97579C57.6743 2.29031 49.7721 0.597534 41.8512 1.08073C33.9303 1.56392 26.2925 4.20467 19.7646 8.71707L29.0404 22.1357C33.1202 19.3154 37.8939 17.665 42.8445 17.363C47.795 17.061 52.7339 18.119 57.1263 20.4224C61.5188 22.7258 65.1974 26.1869 67.764 30.4309C70.3306 34.675 71.6874 39.5403 71.6874 44.5H87.9999Z" fill="#1F2F98" stroke="white" stroke-width="1.0875"/>
<path d="M19.7648 8.71704C13.6068 12.9738 8.65148 18.7478 5.37832 25.4804C2.10516 32.213 0.624902 39.6764 1.08072 47.1487C1.53654 54.6209 3.91301 61.849 7.98027 68.1338C12.0475 74.4187 17.6679 79.5475 24.2977 83.0242C30.9275 86.5009 38.3423 88.2078 45.825 87.9798C53.3076 87.7518 60.6048 85.5966 67.0106 81.7226C73.4164 77.8487 78.714 72.3872 82.3911 65.8663C86.0681 59.3455 88 51.9861 88 44.5H71.6875C71.6875 49.1788 70.4801 53.7784 68.1819 57.854C65.8838 61.9295 62.5727 65.3429 58.5691 67.7641C54.5655 70.1854 50.0048 71.5324 45.3281 71.6749C40.6515 71.8174 36.0172 70.7506 31.8736 68.5776C27.7299 66.4047 24.2172 63.1992 21.6752 59.2711C19.1331 55.3431 17.6478 50.8255 17.363 46.1554C17.0781 41.4853 18.0032 36.8207 20.049 32.6128C22.0947 28.4049 25.1917 24.7961 29.0405 22.1356L19.7648 8.71704Z" fill="#AAB6FB" stroke="white" stroke-width="1.0875"/>
<path d="M38.4214 83.1538C39.8013 83.1538 40.7769 82.231 40.7769 80.9258C40.7769 79.7085 39.8936 78.8164 38.6895 78.8164C37.9424 78.8164 37.3447 79.1636 37.0459 79.7656H36.9712C36.9712 78.3154 37.5205 77.4497 38.4478 77.4497C38.9927 77.4497 39.4146 77.7485 39.5552 78.2275H40.689C40.5 77.186 39.6123 76.5005 38.4565 76.5005C36.8394 76.5005 35.8857 77.7661 35.8857 79.8975C35.8857 80.7061 36.0396 81.3828 36.334 81.9014C36.7559 82.7144 37.4897 83.1538 38.4214 83.1538ZM38.4082 82.209C37.7007 82.209 37.1602 81.6641 37.1602 80.9434C37.1602 80.2358 37.6919 79.7173 38.417 79.7173C39.1421 79.7173 39.665 80.2358 39.665 80.9609C39.665 81.6685 39.1201 82.209 38.4082 82.209ZM42.2578 83H43.4443L46.1558 77.6255V76.6587H41.8315V77.6123H45.022V77.687L42.2578 83ZM52.2554 82.3892C51.9126 82.3892 51.6973 82.064 51.6973 81.5498C51.6973 81.0356 51.9126 80.7104 52.2554 80.7104C52.5981 80.7104 52.8091 81.0269 52.8091 81.5498C52.8091 82.064 52.5894 82.3892 52.2554 82.3892ZM52.2554 83.1318C53.1079 83.1318 53.688 82.4902 53.688 81.5498C53.688 80.6138 53.1079 79.9722 52.2554 79.9722C51.4028 79.9722 50.8184 80.6138 50.8184 81.5498C50.8184 82.4902 51.4028 83.1318 52.2554 83.1318ZM48.4189 79.6865C49.2715 79.6865 49.8516 79.0405 49.8516 78.1045C49.8516 77.1641 49.2715 76.5269 48.4189 76.5269C47.5664 76.5269 46.9775 77.1685 46.9775 78.1045C46.9775 79.0405 47.5664 79.6865 48.4189 79.6865ZM48.6782 83L50.6558 80.0161L53.0991 76.6587H52.0225L50.001 79.6865L47.5972 83H48.6782ZM48.4189 78.9438C48.0762 78.9438 47.8608 78.6143 47.8608 78.1001C47.8608 77.5859 48.0762 77.2651 48.4189 77.2651C48.7617 77.2651 48.9727 77.5771 48.9727 78.1001C48.9727 78.6143 48.7529 78.9438 48.4189 78.9438Z" fill="white"/>
<path d="M39.0107 10.1875H39.8062C40.5884 10.1875 41.0674 10.5698 41.0674 11.1895C41.0674 11.7871 40.5576 12.2046 39.8325 12.2046C39.103 12.2046 38.6021 11.8311 38.5537 11.2422H37.4683C37.5254 12.4023 38.457 13.1582 39.8237 13.1582C41.2036 13.1582 42.2231 12.3496 42.2231 11.2598C42.2231 10.416 41.687 9.82715 40.8213 9.72607V9.65137C41.5244 9.50195 41.9683 8.93506 41.9683 8.19238C41.9683 7.22119 41.0498 6.50049 39.8193 6.50049C38.501 6.50049 37.6484 7.22559 37.5913 8.39014H38.6504C38.6943 7.79248 39.1294 7.42334 39.7842 7.42334C40.4478 7.42334 40.874 7.78809 40.874 8.35059C40.874 8.91748 40.4302 9.30859 39.7842 9.30859H39.0107V10.1875ZM44.8994 10.1875H45.6948C46.4771 10.1875 46.9561 10.5698 46.9561 11.1895C46.9561 11.7871 46.4463 12.2046 45.7212 12.2046C44.9917 12.2046 44.4907 11.8311 44.4424 11.2422H43.3569C43.4141 12.4023 44.3457 13.1582 45.7124 13.1582C47.0923 13.1582 48.1118 12.3496 48.1118 11.2598C48.1118 10.416 47.5757 9.82715 46.71 9.72607V9.65137C47.4131 9.50195 47.8569 8.93506 47.8569 8.19238C47.8569 7.22119 46.9385 6.50049 45.708 6.50049C44.3896 6.50049 43.5371 7.22559 43.48 8.39014H44.5391C44.583 7.79248 45.0181 7.42334 45.6729 7.42334C46.3364 7.42334 46.7627 7.78809 46.7627 8.35059C46.7627 8.91748 46.3188 9.30859 45.6729 9.30859H44.8994V10.1875ZM54.2554 12.3892C53.9126 12.3892 53.6973 12.064 53.6973 11.5498C53.6973 11.0356 53.9126 10.7104 54.2554 10.7104C54.5981 10.7104 54.8091 11.0269 54.8091 11.5498C54.8091 12.064 54.5894 12.3892 54.2554 12.3892ZM54.2554 13.1318C55.1079 13.1318 55.688 12.4902 55.688 11.5498C55.688 10.6138 55.1079 9.97217 54.2554 9.97217C53.4028 9.97217 52.8184 10.6138 52.8184 11.5498C52.8184 12.4902 53.4028 13.1318 54.2554 13.1318ZM50.4189 9.68652C51.2715 9.68652 51.8516 9.04053 51.8516 8.10449C51.8516 7.16406 51.2715 6.52686 50.4189 6.52686C49.5664 6.52686 48.9775 7.16846 48.9775 8.10449C48.9775 9.04053 49.5664 9.68652 50.4189 9.68652ZM50.6782 13L52.6558 10.0161L55.0991 6.65869H54.0225L52.001 9.68652L49.5972 13H50.6782ZM50.4189 8.94385C50.0762 8.94385 49.8608 8.61426 49.8608 8.1001C49.8608 7.58594 50.0762 7.26514 50.4189 7.26514C50.7617 7.26514 50.9727 7.57715 50.9727 8.1001C50.9727 8.61426 50.7529 8.94385 50.4189 8.94385Z" fill="white"/>
</svg>
