<svg width="48" height="48" viewBox="0 0 48 48" fill="none" xmlns="http://www.w3.org/2000/svg">
<g clip-path="url(#clip0_255_1308)">
<path d="M47.0625 31.6929H7.6695C3.44053 31.6929 0 35.1334 0 39.3624C0 43.5913 3.44053 47.0319 7.6695 47.0319H47.0625C47.5803 47.0319 48 46.6122 48 46.0944V32.6304C48 32.1126 47.5803 31.6929 47.0625 31.6929ZM7.6695 45.1569C4.47441 45.1569 1.875 42.5575 1.875 39.3624C1.875 36.1672 4.47441 33.5678 7.6695 33.5678H46.125V35.759H7.67447C5.6865 35.759 4.06913 37.3754 4.06913 39.3624C4.06913 41.3492 5.6865 42.9657 7.67447 42.9657H46.125V45.157H7.6695V45.1569ZM46.125 41.0907H7.67447C6.72038 41.0907 5.94413 40.3154 5.94413 39.3624C5.94413 38.4093 6.72038 37.634 7.67447 37.634H46.125V41.0907Z" fill="#1F2F98"/>
<path d="M4.45232 12.688L15.2915 18.3307C15.4298 18.4027 15.5778 18.4369 15.7236 18.4369C16.062 18.4369 16.3888 18.253 16.5559 17.9321C16.795 17.4728 16.6165 16.9067 16.1573 16.6676L6.91541 11.8564L24 2.96248L37.8292 10.1618V13.5513L32.0818 16.5433C31.6226 16.7824 31.4441 17.3485 31.6832 17.8078C31.9223 18.267 32.4883 18.4455 32.9477 18.2064L37.8293 15.6651V20.4118C37.8293 20.9296 38.249 21.3493 38.7668 21.3493C39.2846 21.3493 39.7043 20.9296 39.7043 20.4118V14.689L43.5478 12.6881C43.858 12.5267 44.0524 12.2061 44.0524 11.8565C44.0524 11.5069 43.8579 11.1864 43.5478 11.025L24.433 1.07398C24.1616 0.932697 23.8385 0.932697 23.5672 1.07398L4.45232 11.0249C4.14219 11.1863 3.94775 11.5069 3.94775 11.8564C3.94775 12.206 4.14229 12.5266 4.45232 12.688ZM39.7042 12.5751V11.1379L41.0846 11.8565L39.7042 12.5751Z" fill="#1F2F98"/>
<path d="M34.5289 23.8887V14.3378C34.5289 12.4176 29.815 10.8608 24.0001 10.8608C18.1851 10.8608 13.4712 12.4176 13.4712 14.3378V23.8887" fill="#AAB6FB"/>
<path d="M24.0001 27.3657C29.815 27.3657 34.5289 25.809 34.5289 23.8887C34.5289 21.9684 29.815 20.4117 24.0001 20.4117C18.1851 20.4117 13.4712 21.9684 13.4712 23.8887C13.4712 25.809 18.1851 27.3657 24.0001 27.3657Z" fill="#AAB6FB"/>
</g>
<defs>
<clipPath id="clip0_255_1308">
<rect width="48" height="48" fill="white"/>
</clipPath>
</defs>
</svg>
