<svg width="48" height="48" viewBox="0 0 48 48" fill="none" xmlns="http://www.w3.org/2000/svg">
<g clip-path="url(#clip0_255_1303)">
<path d="M35.1444 1.92651H12.8552C12.159 1.92651 11.5947 2.49089 11.5947 3.18698V18.804C11.5947 19.5001 12.1591 20.0645 12.8552 20.0645H22.1194L23.9998 21.9449L25.8802 20.0645H35.1444C35.8404 20.0645 36.4048 19.5001 36.4048 18.804V3.18698C36.4049 2.49089 35.8405 1.92651 35.1444 1.92651Z" fill="#AAB6FB"/>
<path d="M44.1015 32.4205H43.8479C44.9652 31.2866 45.6557 29.7312 45.6557 28.0176C45.6557 24.556 42.8381 21.7397 39.375 21.7397C35.9119 21.7397 33.0943 24.556 33.0943 28.0176C33.0943 29.7312 33.7847 31.2865 34.9021 32.4205H34.6485C32.4988 32.4205 30.75 34.1694 30.75 36.3191V37.1694C30.1597 36.8096 29.4669 36.602 28.7265 36.602H28.4729C29.5902 35.4681 30.2807 33.9127 30.2807 32.1991C30.2807 28.7375 27.4631 25.9213 24 25.9213C20.5369 25.9213 17.7193 28.7375 17.7193 32.1991C17.7193 33.9127 18.4097 35.468 19.5271 36.602H19.2735C18.5331 36.602 17.8403 36.8095 17.25 37.1694V36.3191C17.25 34.1694 15.5012 32.4205 13.3515 32.4205H13.0979C14.2152 31.2866 14.9057 29.7312 14.9057 28.0176C14.9057 24.556 12.0881 21.7397 8.625 21.7397C5.16188 21.7397 2.34431 24.556 2.34431 28.0176C2.34431 29.7312 3.03469 31.2865 4.15209 32.4205H3.8985C1.74881 32.4205 0 34.1694 0 36.3191V40.9545C0 41.4721 0.419813 41.892 0.9375 41.892H15.375V45.1361C15.375 45.6538 15.7948 46.0736 16.3125 46.0736H31.6875C32.2052 46.0736 32.625 45.6538 32.625 45.1361V41.892H47.0625C47.5802 41.892 48 41.4721 48 40.9545V36.3191C48 34.1694 46.2512 32.4205 44.1015 32.4205ZM34.9693 28.0176C34.9693 25.5899 36.9457 23.6147 39.375 23.6147C41.8043 23.6147 43.7807 25.5899 43.7807 28.0176C43.7807 30.4454 41.8043 32.4205 39.375 32.4205C36.9457 32.4205 34.9693 30.4454 34.9693 28.0176ZM19.5943 32.1992C19.5943 29.7715 21.5707 27.7964 24 27.7964C26.4293 27.7964 28.4057 29.7715 28.4057 32.1992C28.4057 34.627 26.4293 36.6021 24 36.6021C21.5707 36.6021 19.5943 34.6269 19.5943 32.1992ZM4.21931 28.0176C4.21931 25.5899 6.19566 23.6147 8.625 23.6147C11.0543 23.6147 13.0307 25.5899 13.0307 28.0176C13.0307 30.4454 11.0543 32.4205 8.625 32.4205C6.19566 32.4205 4.21931 30.4454 4.21931 28.0176ZM1.875 36.3191C1.875 35.2033 2.78278 34.2955 3.8985 34.2955H13.3515C14.4672 34.2955 15.375 35.2033 15.375 36.3191V40.017H1.875V36.3191ZM30.75 44.1986H17.25V40.5006C17.25 39.3849 18.1578 38.4771 19.2735 38.4771H28.7265C29.8422 38.4771 30.75 39.3849 30.75 40.5006V44.1986ZM46.125 40.017H32.625V36.3191C32.625 35.2033 33.5328 34.2955 34.6485 34.2955H44.1015C45.2172 34.2955 46.125 35.2033 46.125 36.3191V40.017Z" fill="#1F2F98"/>
</g>
<defs>
<clipPath id="clip0_255_1303">
<rect width="48" height="48" fill="white"/>
</clipPath>
</defs>
</svg>
