<svg width="48" height="48" viewBox="0 0 48 48" fill="none" xmlns="http://www.w3.org/2000/svg">
<g clip-path="url(#clip0_255_1063)">
<path d="M23.9998 25.9873C26.0257 25.9873 27.6681 24.3449 27.6681 22.319C27.6681 20.2931 26.0257 18.6508 23.9998 18.6508C21.9739 18.6508 20.3315 20.2931 20.3315 22.319C20.3315 24.3449 21.9739 25.9873 23.9998 25.9873Z" fill="#AAB6FB"/>
<path d="M20.23 34.4701H27.7699V47.0625H20.23V34.4701Z" fill="#AAB6FB"/>
<path d="M44.1125 25.9847H34.7035V15.3012C34.7035 14.9799 34.539 14.6811 34.2676 14.5091L24.9376 8.60156V6.61434H29.3617C29.6645 6.61434 29.9488 6.468 30.1248 6.22162C30.3007 5.97506 30.3468 5.65884 30.2484 5.37234L29.5392 3.30722L30.2484 1.24209C30.3468 0.955594 30.3007 0.639375 30.1248 0.392812C29.9488 0.146344 29.6646 0 29.3617 0H24.0001C23.4824 0 23.0626 0.419813 23.0626 0.9375V8.60156L13.7326 14.509C13.4611 14.681 13.2966 14.9798 13.2966 15.3011V25.9847H3.8877C3.37001 25.9847 2.9502 26.4045 2.9502 26.9222V47.0625C2.9502 47.5802 3.37001 48 3.8877 48H44.1125C44.6301 48 45.05 47.5802 45.05 47.0625V26.9222C45.05 26.4044 44.6302 25.9847 44.1125 25.9847ZM24.9376 1.875H28.0486L27.6613 3.00262C27.5935 3.19997 27.5935 3.41428 27.6613 3.61162L28.0486 4.73925H24.9376V1.875ZM13.2966 27.8597V46.125H10.2947V34.855C10.2947 34.3373 9.87485 33.9175 9.35716 33.9175H4.8252V27.8597H13.2966ZM4.8252 46.125V35.7925H8.41966V46.125H4.8252ZM15.1716 15.8172L24.0001 10.2273L32.8285 15.8172V46.125H15.1716V15.8172ZM34.7035 27.8597H43.175V33.9175H38.643C38.1253 33.9175 37.7055 34.3373 37.7055 34.855V46.125H34.7035V27.8597ZM43.175 46.125H39.5805V35.7925H43.175V46.125Z" fill="#1F2F98"/>
</g>
<defs>
<clipPath id="clip0_255_1063">
<rect width="48" height="48" fill="white"/>
</clipPath>
</defs>
</svg>
