<svg width="32" height="32" viewBox="0 0 32 32" fill="none" xmlns="http://www.w3.org/2000/svg">
<path d="M22.3998 23.68H27.5198C27.5198 19.2 26.6771 18.1386 24.9598 17.28C23.6798 16.64 21.1198 16 21.1198 14.08C21.1198 12.16 22.3998 11.52 22.3998 8.96C22.3998 6.4 21.1198 5.12 19.1998 5.12C17.4881 5.12 16.2851 6.13723 16.0442 8.1717M5.75977 26.24C5.75977 21.76 7.03977 20.48 8.31977 19.84C9.59977 19.2 12.1598 18.56 12.1598 16.64C12.1598 14.72 10.8798 14.08 10.8798 11.52C10.8798 8.96 12.1598 7.68 14.0798 7.68C15.9998 7.68 17.2798 8.96 17.2798 11.52C17.2798 14.08 15.9998 14.72 15.9998 16.64C15.9998 18.56 18.5598 19.2 19.8398 19.84C21.5571 20.6986 22.3998 21.76 22.3998 26.24H5.75977Z" stroke="#1F2F98" stroke-width="1.2"/>
</svg>
